<svg width="100" height="64" viewBox="0 0 100 64" fill="none" xmlns="http://www.w3.org/2000/svg">
<path d="M1.63007 11.0851C1.75007 11.0651 1.87007 11.0451 2.01007 11.0051C2.57007 10.8651 3.27007 10.7251 4.11007 10.5851C4.95007 10.4451 5.79007 10.385 6.67007 10.405C6.85007 10.405 7.01007 10.3251 7.13007 10.1451C7.23007 9.96505 7.27007 9.76505 7.23007 9.54505C9.85007 8.98505 12.4901 8.52505 15.1901 8.14505C14.9101 8.56505 14.6301 8.94505 14.4101 9.26505C14.0901 9.70505 13.7701 10.1451 13.4701 10.5851C13.1701 11.0251 12.8501 11.5451 12.4701 12.1651C12.0701 12.8051 11.5901 13.6851 11.0101 14.8051C10.4501 15.9451 9.85007 17.2251 9.25007 18.6451C8.63007 20.0851 8.23007 21.545 8.01007 23.025C7.81007 24.525 7.93007 25.5651 8.41007 26.1651C8.87007 26.6251 9.47007 26.7851 10.1901 26.6451C10.5701 26.5251 10.7901 26.325 10.8301 26.005C10.8501 25.705 10.6901 25.485 10.3101 25.365C10.1901 25.345 10.0901 25.3251 10.0101 25.3251C9.89007 25.3451 9.81007 25.325 9.73007 25.305C9.65007 25.265 9.59007 25.1851 9.53007 25.0651C9.45007 24.8451 9.41007 24.565 9.39007 24.265C9.39007 23.965 9.41007 23.685 9.43007 23.445C9.77007 21.245 10.5701 18.905 11.8301 16.425C13.0701 13.945 14.3901 11.7651 15.7501 9.84505C15.7901 9.80505 15.8301 9.74505 15.8701 9.68505L16.3901 8.96505C16.6101 8.68505 16.8101 8.42505 17.0301 8.20505C17.2301 7.96505 17.4101 7.84505 17.5501 7.82505L19.7901 7.54505C21.2701 7.36505 22.6501 7.20505 23.9501 7.10505C25.2501 7.00505 26.8301 6.96505 28.6901 7.00505C28.8301 7.00505 28.9501 7.00505 29.0901 7.02505C29.2101 7.04505 29.3501 7.06505 29.4701 7.06505C29.7701 7.04505 29.9901 6.96505 30.1501 6.78505C30.2901 6.60505 30.3501 6.42505 30.3101 6.22505C30.2701 6.00505 30.1101 5.86505 29.8301 5.76505C29.2301 5.60505 28.2901 5.54505 27.0101 5.60505C25.7301 5.64505 24.4101 5.72505 23.0101 5.86505C21.6301 5.98505 20.4901 6.10505 19.5901 6.20505C19.3101 6.24505 19.0901 6.26505 18.9101 6.28505C18.9301 5.80505 18.7901 5.52505 18.4701 5.44505C18.1701 5.36505 17.8701 5.40505 17.5701 5.58505C17.2701 5.78505 17.0701 5.98505 16.9101 6.18505C16.8101 6.30505 16.7101 6.40505 16.6101 6.48505C16.4901 6.58505 16.3701 6.62505 16.2101 6.64505C15.2501 6.78505 13.7301 7.00505 11.6501 7.36505C9.57007 7.70505 7.51007 8.10505 5.49007 8.56505C3.45007 9.00505 2.03007 9.46505 1.21007 9.92505C0.87007 10.1851 0.75007 10.445 0.85007 10.745C0.95007 11.025 1.21007 11.1451 1.63007 11.0851ZM19.4277 19.6451C19.7677 19.5851 20.1877 19.3651 20.6877 19.0451C21.2077 18.7051 21.6677 18.3651 22.1077 18.0251C22.5477 17.6651 22.8077 17.4451 22.9077 17.3251C22.6877 17.8051 22.3677 18.5851 21.9477 19.6051C21.5077 20.6451 21.1677 21.525 20.9277 22.285C20.8277 22.605 20.9077 22.865 21.1277 23.045C21.3477 23.245 21.5877 23.305 21.8677 23.285C22.1477 23.245 22.3477 23.085 22.4277 22.785C22.8677 20.885 23.7477 18.665 25.0477 16.085C26.3477 13.505 27.8877 10.8451 29.6677 8.08505C29.8877 7.70505 29.9077 7.38505 29.7277 7.12505C29.5477 6.86505 29.3077 6.72505 28.9877 6.70505C28.6677 6.68505 28.4077 6.82505 28.1877 7.14505C27.2277 8.86505 26.4877 10.185 26.0077 11.105C25.6477 11.805 25.3077 12.4051 25.0077 12.9251C24.7077 13.4451 24.3477 13.9851 23.9477 14.5451C23.3477 15.3851 22.4677 16.305 21.2677 17.265C20.5677 17.845 20.0477 18.165 19.7477 18.265C19.4277 18.365 19.2277 18.305 19.1877 18.085C19.1477 17.865 19.1677 17.5851 19.2877 17.2251C19.3877 16.8451 19.5277 16.5051 19.6677 16.1651C19.8277 15.8051 19.9477 15.5651 20.0277 15.4051C20.0877 15.2851 20.0477 15.1451 19.9477 15.0051C19.8477 14.8651 19.7077 14.7651 19.5477 14.6851C19.3877 14.6051 19.2277 14.6051 19.1077 14.6651C18.9277 14.7651 18.7077 14.9251 18.4877 15.1251C17.8477 14.5051 17.1477 14.5251 16.3877 15.2051C14.2877 16.9651 13.1077 18.3851 12.8477 19.4851C12.5877 20.5851 12.8877 21.0251 13.7277 20.7851C14.0477 20.6451 14.4677 20.365 14.9877 19.925C15.5277 19.485 16.0677 19.0051 16.6077 18.5251C17.1277 18.0251 17.5677 17.6451 17.9077 17.3651C17.7277 18.2651 17.8077 18.8851 18.1277 19.2451C18.4677 19.6051 18.9077 19.7451 19.4277 19.6451ZM15.0077 18.2451L15.2477 17.9651C15.4077 17.7851 15.6077 17.5851 15.8277 17.3651C16.0677 17.1251 16.2677 16.945 16.4677 16.765C16.6677 16.605 16.8077 16.5251 16.8877 16.5251C16.8077 16.6251 16.6677 16.7651 16.4877 16.9451C16.2877 17.1451 16.0677 17.3451 15.8477 17.5451C15.6277 17.7651 15.4277 17.9251 15.2677 18.0651C15.1077 18.2051 15.0077 18.2651 15.0077 18.2451ZM34.1323 9.52505C34.5923 8.70505 35.0323 8.00505 35.4523 7.40505C35.6923 7.02505 35.8723 6.74505 35.9723 6.56505C36.1123 6.30505 36.0923 6.06505 35.9723 5.84505C35.8323 5.62505 35.6323 5.54505 35.3323 5.56505C35.0523 5.58505 34.7323 5.82505 34.3723 6.26505C30.9923 10.885 28.2523 15.8051 26.1923 21.0251L26.1323 21.1651C25.7923 21.9651 25.4523 22.865 25.1523 23.885C25.0923 24.125 25.1723 24.305 25.3923 24.445C25.5923 24.585 25.8323 24.645 26.0923 24.625C26.3323 24.625 26.5123 24.5251 26.5923 24.3251C26.8723 23.4451 27.2723 22.4051 27.7523 21.1851C28.2523 19.965 28.6923 18.9251 29.0723 18.0651C29.3723 18.5451 29.9923 18.785 30.9323 18.765C31.8723 18.745 33.0123 18.5651 34.3323 18.2451C35.6323 17.9051 36.7123 17.5651 37.5123 17.2251C37.7723 17.1051 37.8923 16.965 37.9323 16.765C37.9523 16.565 37.8723 16.405 37.7323 16.265C37.5723 16.145 37.3723 16.1051 37.1123 16.1651C36.3723 16.4451 35.6123 16.6851 34.8323 16.8851C34.0523 17.0851 33.3523 17.245 32.7123 17.345C32.0723 17.445 31.5123 17.4851 31.0323 17.4651C30.5523 17.4451 30.4523 17.285 30.7323 17.005C31.3723 16.465 32.1723 16.0451 33.1123 15.7251C33.3923 15.6051 33.5123 15.4051 33.5123 15.1451C33.4923 14.8851 33.3923 14.6651 33.1723 14.4851C32.9723 14.3051 32.7123 14.2451 32.4123 14.3451C32.0523 14.4851 31.6723 14.7051 31.2523 15.0051C30.8323 15.2851 30.5323 15.5051 30.3323 15.6651C30.3523 15.4651 30.5723 14.9851 30.9923 14.2451C31.3923 13.4851 31.8323 12.725 32.2923 11.945C32.7523 11.185 33.0723 10.6651 33.2323 10.3851C33.3323 10.2451 33.4123 10.145 33.4723 10.105C33.5323 10.065 33.5923 10.025 33.6523 10.025C33.7123 10.005 33.7923 9.96505 33.8723 9.90505C33.9323 9.84505 34.0323 9.72505 34.1323 9.52505ZM37.6345 14.5651C37.2745 15.0051 36.8345 15.685 36.2945 16.585C35.7545 17.485 35.4945 18.325 35.5145 19.085C35.7345 20.145 36.2545 20.6651 37.0945 20.6451C37.9345 20.6251 38.8745 20.3251 39.9345 19.7251C40.9945 19.1251 41.9545 18.4851 42.8345 17.7851C43.7145 17.0851 44.2945 16.5851 44.6145 16.2851C44.7945 16.0851 44.8745 15.9251 44.8345 15.7651C44.7945 15.6051 44.7145 15.5051 44.5545 15.4451C44.4145 15.3851 44.2545 15.4251 44.0945 15.5251C44.0745 15.5451 44.0345 15.5851 43.9545 15.6451C43.6745 15.8651 43.1745 16.2651 42.4345 16.8051C41.6945 17.3451 40.8945 17.8651 40.0145 18.3651C39.1345 18.8651 38.3145 19.165 37.5945 19.265C37.1145 19.305 36.9145 19.1251 36.9945 18.7251C37.0545 18.3251 37.2945 17.8251 37.6745 17.2451C38.0545 16.6451 38.4545 16.0651 38.8945 15.5051C39.0545 15.2451 39.0545 15.0251 38.8945 14.8051C38.7345 14.6051 38.5345 14.4651 38.2745 14.4051C37.9945 14.3451 37.7945 14.3851 37.6345 14.5651ZM38.8145 13.3451C38.7345 13.7051 38.7545 13.9251 38.8745 13.9851C39.0545 14.0251 39.3345 13.9251 39.7145 13.6451C40.0945 13.3851 40.4545 13.0651 40.8145 12.6851C41.1545 12.3251 41.3745 12.0051 41.4745 11.7651C41.5345 11.5451 41.4545 11.405 41.2345 11.325C41.0345 11.245 40.7945 11.2051 40.5345 11.2251C40.2745 11.2251 40.0745 11.285 39.9545 11.365C39.7145 11.545 39.4745 11.8451 39.2745 12.2251C39.0545 12.6251 38.9145 13.0051 38.8145 13.3451ZM44.2612 14.4651C43.3212 16.0451 42.5412 17.5051 41.9212 18.8851C41.8212 19.1651 41.8412 19.4051 41.9812 19.6251C42.1212 19.8251 42.3212 19.9651 42.5412 20.0451C42.7812 20.1251 42.9812 20.0851 43.1612 19.9651C43.3612 19.7651 43.7212 19.385 44.2412 18.845L45.6412 17.425C46.1212 16.945 46.5212 16.545 46.8412 16.265C47.1812 15.985 47.3212 15.9051 47.3012 16.0451C47.2412 16.2051 47.1612 16.3851 47.0612 16.6051C46.8012 17.1251 46.6012 17.6851 46.4412 18.2851C46.2812 18.8851 46.3812 19.3051 46.7812 19.5651C47.4412 19.8451 48.3412 19.665 49.4612 19.085C50.5812 18.485 51.5812 17.8451 52.5012 17.1251C52.7212 16.9451 52.8212 16.7651 52.8212 16.5651C52.8012 16.3651 52.7212 16.2251 52.5612 16.1251C52.4012 16.0451 52.2012 16.0651 51.9812 16.2251C51.9612 16.2251 51.9412 16.2451 51.9412 16.2451C51.7212 16.4051 51.3612 16.6651 50.8212 17.0251C50.3012 17.3851 49.7612 17.7051 49.2012 17.9851C48.6412 18.2651 48.2212 18.3651 47.9212 18.2851C47.8412 18.2451 47.8612 18.0451 48.0212 17.7251C48.1612 17.4051 48.3412 17.0451 48.5612 16.6251L49.0012 15.7851C49.1212 15.5251 49.2012 15.3251 49.2412 15.1651C49.2812 14.9651 49.2212 14.7451 49.0812 14.5451C48.9412 14.3251 48.7812 14.1651 48.5612 14.0451C48.3612 13.9251 48.1612 13.8851 47.9812 13.9451C47.7612 14.0451 47.4012 14.3051 46.9212 14.7051C46.4412 15.0851 45.9612 15.5051 45.5012 15.9251C45.0212 16.3451 44.7012 16.645 44.5012 16.845C44.5012 16.765 44.5612 16.6451 44.6612 16.4651C44.7812 16.3051 44.9212 16.1051 45.0812 15.8651C45.2212 15.6851 45.3612 15.4651 45.5012 15.2651C45.6212 15.0651 45.6012 14.8651 45.4612 14.6451C45.3012 14.4451 45.1012 14.3051 44.8612 14.2451C44.6212 14.1851 44.4212 14.2651 44.2612 14.4651ZM48.8526 30.8251C49.6726 29.8251 50.4726 28.725 51.2326 27.525C51.9126 26.485 52.4326 25.745 52.8326 25.345L53.9526 24.265C56.4126 21.785 59.4526 19.125 63.0726 16.265C63.3126 16.065 63.4326 15.8251 63.4126 15.5451C63.4126 15.2851 63.3326 15.0651 63.1726 14.9051C63.0126 14.7451 62.8326 14.7451 62.6126 14.9051C60.6126 16.5251 58.8926 18.005 57.4726 19.345C56.4526 20.265 55.6926 20.9251 55.1526 21.3651C55.3326 21.0851 55.6726 20.4651 56.1526 19.4851C56.6326 18.5251 57.0326 17.5251 57.3726 16.4851C57.7126 15.4451 57.7526 14.6851 57.5126 14.2251C57.3926 14.0451 57.2326 13.9651 57.0526 13.9851C56.8526 14.0051 56.6726 14.0651 56.5126 14.1851L56.1526 14.4251C56.1326 14.4251 56.1326 14.4451 56.1126 14.4451C56.0126 14.3851 55.8926 14.2651 55.7726 14.1051C55.6726 13.9851 55.5726 13.8651 55.4526 13.7451C55.3326 13.6451 55.1926 13.5851 55.0326 13.5851C54.6126 13.6251 54.0526 13.9451 53.3726 14.5451C52.6726 15.1651 52.0126 15.8451 51.3726 16.6251C50.7126 17.4051 50.2126 18.0651 49.8926 18.6251C49.5326 19.2451 49.3926 19.7651 49.4526 20.1851C49.5326 20.605 49.8326 20.7651 50.3526 20.6451C50.7126 20.5251 51.2126 20.205 51.8326 19.6851C52.4526 19.1651 53.0926 18.5851 53.7726 17.9451C54.7326 17.0451 55.5326 16.3451 56.1726 15.8851C55.8326 17.1451 55.3726 18.2851 54.8126 19.3051C54.2326 20.3251 53.5726 21.3451 52.8526 22.4051C52.7326 22.5851 52.5926 22.7851 52.4726 22.9851C51.9726 23.6651 51.2726 24.445 50.3926 25.305C49.4326 26.225 48.4726 27.2851 47.4926 28.4851C47.2126 28.9051 47.1326 29.3651 47.2726 29.8251C47.3926 30.3051 47.6126 30.645 47.9326 30.885C48.2526 31.125 48.5726 31.1051 48.8526 30.8251Z" fill="#3E3E3E"/>
<path d="M20.1191 42.0649H15.1891V57.8749H8.38905V42.0649H3.45905V36.6249H20.1191V42.0649ZM21.9891 40.8749H25.3891L27.2591 42.7789C28.5964 41.5549 30.2737 40.7502 32.2911 40.3649L32.6991 46.7909C32.1551 46.8136 31.4411 46.9496 30.5571 47.1989C29.6957 47.4482 29.1064 47.7656 28.7891 48.1509V57.8749H21.9891V40.8749ZM42.7971 40.3649C48.2371 40.3649 50.9571 42.2349 50.9571 45.9749V57.8749H47.5571L45.6191 55.9369C44.9617 56.7076 44.0664 57.3082 42.9331 57.7389C41.7997 58.1696 40.7231 58.3849 39.7031 58.3849C38.7057 58.3849 37.9011 58.3056 37.2891 58.1469C36.6771 57.9882 36.0764 57.7162 35.4871 57.3309C34.1951 56.5149 33.5491 54.9962 33.5491 52.7749C33.5491 48.6949 36.6317 46.6549 42.7971 46.6549H44.1571V45.4309C43.4317 45.3856 42.8311 45.3629 42.3551 45.3629C39.7937 45.3629 37.5951 45.6689 35.7591 46.2809L34.9431 41.4189C37.2097 40.7162 39.8277 40.3649 42.7971 40.3649ZM40.4171 52.0269V53.4209H41.8111C42.8084 53.4209 43.4431 53.3076 43.7151 53.0809C44.0097 52.8542 44.1571 52.5596 44.1571 52.1969V50.5989H42.7631C41.9471 50.5989 41.3464 50.6896 40.9611 50.8709C40.5984 51.0296 40.4171 51.4149 40.4171 52.0269ZM56.5801 57.8749L52.3301 40.8749H59.1301L61.0001 51.9249H61.3401L63.2101 40.8749H70.0101L65.7601 57.8749H56.5801ZM78.3241 52.0949V53.2849C79.0041 53.3529 79.6841 53.3869 80.3641 53.3869C82.4721 53.3869 84.6028 53.0469 86.7561 52.3669L87.5721 57.3649C85.0335 58.0449 82.5175 58.3849 80.0241 58.3849C76.8508 58.3849 74.5501 57.6482 73.1221 56.1749C71.7168 54.6789 71.0141 52.4122 71.0141 49.3749C71.0141 46.3376 71.7168 44.0822 73.1221 42.6089C74.5501 41.1129 76.8395 40.3649 79.9901 40.3649C83.1635 40.3649 85.3508 40.7956 86.5521 41.6569C87.7535 42.5182 88.3541 44.1276 88.3541 46.4849C88.3541 48.4796 87.6288 49.9189 86.1781 50.8029C84.7501 51.6642 82.1321 52.0949 78.3241 52.0949ZM78.3241 46.7569V48.1509H79.7181C80.5341 48.1509 81.1235 48.0716 81.4861 47.9129C81.8715 47.7316 82.0641 47.3349 82.0641 46.7229V45.3289H80.6701C79.8541 45.3289 79.2535 45.4196 78.8681 45.6009C78.5055 45.7596 78.3241 46.1449 78.3241 46.7569ZM97.7188 35.2649V53.0129C98.4441 53.1489 98.9994 53.2282 99.3848 53.2509L99.0788 58.2489C96.1774 58.2489 94.2621 58.0789 93.3328 57.7389C92.1768 57.3082 91.4628 56.7642 91.1908 56.1069C91.0094 55.6989 90.9188 55.2229 90.9188 54.6789V35.7749L97.7188 35.2649Z" fill="#8A53FF"/>
</svg>
